<svg xmlns="http://www.w3.org/2000/svg" width="217.6" height="40" viewBox="0 0 217.6 40"><defs><style>.a{fill:#c8102d;}</style></defs><path class="a" d="M4.142,40a2.047,2.047,0,0,1-1.951-1.306,7.9,7.9,0,0,1-.532-3.254c0-3.188,1.331-7.109,3.747-11.04a20.512,20.512,0,0,1-3.991-4.981A13.69,13.69,0,0,1,0,12.877,13.546,13.546,0,0,1,3.912,3.545,14.074,14.074,0,0,1,7.276.927,6.6,6.6,0,0,1,10.222,0c.416,0,.593.143.593.48a8.463,8.463,0,0,1-.121,1.081c-.017.091-.041.207-.069.345a33.984,33.984,0,0,0-.758,6.777,74.757,74.757,0,0,0,.633,8.33q.058.513.115,1.028a35.67,35.67,0,0,1,5.3-4.519A7.521,7.521,0,0,1,19.374,12c.337,0,.515.081.515.235,0,.264-.339.676-.635,1A7.008,7.008,0,0,0,17.8,17.762a5.66,5.66,0,0,0,.927,3.25,3.083,3.083,0,0,0,2.588,1.39c1.624,0,3.269-1.347,3.269-3.92A6.945,6.945,0,0,0,24.5,17.2h-.513a4.875,4.875,0,0,1-2.612-.705,2.643,2.643,0,0,1-1.252-2.3,2.022,2.022,0,0,1,.587-1.5,2.232,2.232,0,0,1,1.5-.574h.064c1.155,0,2.751,1.051,3.526,3.36A10.525,10.525,0,0,0,29.714,14V9.84A15.169,15.169,0,0,1,31.1,3.2C32,1.393,33.221.4,34.527.4c1.507,0,2.406,1.258,2.406,3.365a15.006,15.006,0,0,1-4.027,10v5.357c0,.673,0,1.044.078,1.044.134,0,.459-.615.87-1.395.077-.145.156-.3.237-.448.725-1.391,1.623-2.884,2.406-4.16l.024-.04c.518-.844,1.3-2.12,2.7-2.12C40.367,12,41,12.938,41,14.639v6.723c0,.192.037.278.119.278a.686.686,0,0,0,.237-.238c.529-.741,3.314-5.151,4.932-7.921A2.576,2.576,0,0,1,48.648,12c1.147,0,1.779.937,1.779,2.638v5.123c0,.225.035.4.079.4s.154-.081.274-.323c.344-.658,2.133-4.059,3.635-6.361A2.63,2.63,0,0,1,56.738,12c1.145,0,1.776.937,1.776,2.638v7c0,.241.037.279.124.279.036,0,.151-.118.232-.238A50.656,50.656,0,0,0,64.2,12.517c.2-.581.32-.835.592-.835s.39.368.522.757c.023.069.046.135.069.2.217.541.551,1.177.9,1.851s.752,1.433,1.105,2.231a25.955,25.955,0,0,1,4.738-3.442A10.176,10.176,0,0,1,76.429,12c.339,0,.511.079.511.235,0,.317-.207.542-.494.854l-.138.151a7.012,7.012,0,0,0-1.457,4.521,5.661,5.661,0,0,0,.927,3.25,3.08,3.08,0,0,0,2.585,1.39c1.628,0,3.276-1.347,3.276-3.92,0-.1,0-.217,0-.326a5.66,5.66,0,0,0-.046-1.076,2.862,2.862,0,0,1-.633.041,4.862,4.862,0,0,1-1.933-.279A2.757,2.757,0,0,1,77.176,14.2a2.022,2.022,0,0,1,.586-1.5,2.238,2.238,0,0,1,1.507-.574h.069a2.967,2.967,0,0,1,1.866.77,5.624,5.624,0,0,1,1.541,2.27,11.716,11.716,0,0,0,1.929-1.2c.291-.206.563-.43.826-.648A4.227,4.227,0,0,1,88.3,12c1.322,0,1.937.838,1.937,2.638v5.123c0,.274.036.4.114.4s.169-.19.247-.343l.03-.059c.128-.246.278-.54.436-.851l0-.005A57.168,57.168,0,0,1,94.1,13.48,2.69,2.69,0,0,1,96.432,12a1.659,1.659,0,0,1,1.345.613,3.2,3.2,0,0,1,.548,2.024v7c0,.243.124.44.276.44a1.081,1.081,0,0,0,.791-.47c.041-.045.08-.088.119-.128.285-.319.516-.584.7-.8.59-.68.767-.884,1.036-.884a.587.587,0,0,1,.629.561.914.914,0,0,1-.116.4l-.272.469c-1.4,2.415-2.322,4.01-4.033,4.01-1.628,0-2.524-1.037-2.524-2.919v-6.24c0-.537-.087-.642-.238-.642-.118,0-.284.256-.472.565-.844,1.423-2.762,5.159-4.022,7.837a2.142,2.142,0,0,1-1.9,1.4c-.966,0-1.379-.563-1.379-1.881V15.521c0-.539-.168-.8-.515-.8a2.123,2.123,0,0,0-1.1.56,9.544,9.544,0,0,1-2.088,1.362l.015.094a8.551,8.551,0,0,1,.1,1.7,7.328,7.328,0,0,1-1.686,4.886,5.716,5.716,0,0,1-4.354,1.915,5.039,5.039,0,0,1-4.154-2.02,7.5,7.5,0,0,1-1.4-4.54A7.012,7.012,0,0,1,72.958,14.6c-1.648.413-3.823,2.38-4.973,3.516a8.48,8.48,0,0,1,.63,2.922,4.6,4.6,0,0,1-1.055,3.015,3.236,3.236,0,0,1-2.419,1.185,2.183,2.183,0,0,1-2.09-2.362A6.67,6.67,0,0,1,64.947,19a16.506,16.506,0,0,0-1.184-2.239c-1.215,2.078-3.083,5.094-4.341,6.757-.7.907-1.419,1.72-2.521,1.72a1.645,1.645,0,0,1-1.2-.471,2.578,2.578,0,0,1-.578-1.848v-6.8c0-.49-.029-.723-.2-.723-.1,0-.268.2-.511.6-.824,1.418-2.771,5.085-4.07,7.837a2.106,2.106,0,0,1-1.848,1.4c-.972,0-1.386-.563-1.386-1.881V16.2c0-.513-.073-.6-.235-.6s-.345.184-.515.48c-.863,1.519-3.013,5.005-5.09,8a2.158,2.158,0,0,1-1.817,1.158,1.632,1.632,0,0,1-1.195-.471,2.583,2.583,0,0,1-.576-1.848v-6.84c0-.47-.078-.68-.156-.68-.263,0-.574.57-1.09,1.514-.1.188-.214.391-.333.606-.832,1.5-2.392,4.367-2.959,5.6-.652,1.435-1.125,2.119-2.051,2.119a1.323,1.323,0,0,1-1.38-1.441V15.759A10.142,10.142,0,0,1,26.2,17l.007.08c.038.447.073.868.073,1.358a7.268,7.268,0,0,1-1.731,4.886,5.707,5.707,0,0,1-4.3,1.915,5.047,5.047,0,0,1-4.158-2.02,7.488,7.488,0,0,1-1.407-4.54,9.489,9.489,0,0,1,.395-2.556A26.226,26.226,0,0,0,10.815,20c.154,1.829.232,3.687.232,5.52A25.69,25.69,0,0,1,9.075,35.07C7.7,38.249,5.948,40,4.142,40ZM7.968,23.323c-2.995,3.887-4.481,7.856-4.416,11.8a3.057,3.057,0,0,0,.492,1.713,1.34,1.34,0,0,0,1.086.6h.03c1.256,0,2.057-1.471,2.508-2.7a16.952,16.952,0,0,0,.895-5.573A43.414,43.414,0,0,0,7.968,23.323ZM65.577,20.6a4.71,4.71,0,0,0-.946,2.162c0,.571.327.924.63.924.441,0,.672-.644.672-1.281A5.387,5.387,0,0,0,65.577,20.6ZM9.234,1.365c-1.1,0-2.653,1.289-3.861,3.208a15.753,15.753,0,0,0-2.293,8.3,17.67,17.67,0,0,0,.882,5.913,13.71,13.71,0,0,0,2.391,4.172l1.265-1.72c-.076-.5-.156-1-.233-1.484a44.045,44.045,0,0,1-.717-6.277A25.5,25.5,0,0,1,8.13,4.88c.356-1,.67-1.779.9-2.346A5.233,5.233,0,0,0,9.39,1.52C9.39,1.4,9.354,1.365,9.234,1.365ZM79.5,13.922a.526.526,0,0,0-.552.559c0,.673.73,1.162,1.735,1.162.081,0,.183-.01.281-.02s.2-.02.273-.02C80.819,14.511,80.031,13.922,79.5,13.922Zm-57.053,0a.52.52,0,0,0-.551.559c0,.765.714,1.121,2.247,1.121C23.719,14.5,22.97,13.922,22.452,13.922ZM34.405,1.844c-.219,0-.582.315-.883,1.2a19.206,19.206,0,0,0-.615,5.673v2.922a13.7,13.7,0,0,0,2.211-7.12C35.118,2.194,35.024,1.844,34.405,1.844Z" transform="translate(0 0)"/><path class="a" d="M16.654,40A2.047,2.047,0,0,1,14.7,38.694a7.918,7.918,0,0,1-.531-3.254c0-3.19,1.33-7.11,3.745-11.04a23.006,23.006,0,0,1-2.6-2.88,10.128,10.128,0,0,0-1.777-.2,15.28,15.28,0,0,0-3.555.6C9.9,24,9.477,25.241,8.841,25.241c-.375,0-.549-.381-.549-1.2,0-.223-.018-.465-.037-.72-.022-.3-.046-.618-.046-.961a9.424,9.424,0,0,1-2.051.278,10.594,10.594,0,0,1-4.368-.778A2.628,2.628,0,0,1,0,19.523a1.889,1.889,0,0,1,.652-1.487,3.693,3.693,0,0,1,2.429-.675,6.383,6.383,0,0,1,4.893,1.961,5.857,5.857,0,0,0-1.179-2.907c-.049-.066-.091-.123-.127-.175a.6.6,0,0,1-.117-.357c0-.165.527-.429.95-.642a2.547,2.547,0,0,1,1.141-.4.449.449,0,0,1,.315.12c.694.779,1.109,3.094,1.109,4.881v.8l.365-.081a12.862,12.862,0,0,1,2.831-.4,5.9,5.9,0,0,1,1.1.078,13.474,13.474,0,0,1-1.856-7.365,13.549,13.549,0,0,1,3.91-9.332A14.073,14.073,0,0,1,19.783.927,6.591,6.591,0,0,1,22.726,0c.416,0,.594.143.594.48A7.869,7.869,0,0,1,23.2,1.56c-.018.1-.045.23-.075.381a34.16,34.16,0,0,0-.751,6.741,73.876,73.876,0,0,0,.623,8.215l0,.021q.063.559.125,1.122a35.694,35.694,0,0,1,5.3-4.519A7.523,7.523,0,0,1,31.883,12c.338,0,.51.079.51.235,0,.265-.336.676-.628,1a7.021,7.021,0,0,0-1.46,4.521,5.664,5.664,0,0,0,.927,3.25,3.076,3.076,0,0,0,2.582,1.39c1.627,0,3.273-1.347,3.273-3.92a7.076,7.076,0,0,0-.076-1.28h-.517a4.87,4.87,0,0,1-2.609-.705,2.643,2.643,0,0,1-1.252-2.3,2.021,2.021,0,0,1,.587-1.5,2.238,2.238,0,0,1,1.506-.574h.064c1.157,0,2.752,1.051,3.52,3.36A10.51,10.51,0,0,0,42.218,14V9.84A15.167,15.167,0,0,1,43.6,3.2C44.508,1.393,45.725.4,47.03.4c1.511,0,2.414,1.258,2.414,3.365a15.022,15.022,0,0,1-4.026,10v5.357c0,.673,0,1.044.079,1.044.128,0,.441-.593.838-1.343.085-.161.174-.329.266-.5.713-1.373,1.615-2.874,2.4-4.16l.017-.028c.518-.849,1.3-2.132,2.706-2.132,1.145,0,1.775.937,1.775,2.638v6.723c0,.187.039.278.119.278a.63.63,0,0,0,.237-.238c.481-.676,3.245-5.033,4.932-7.921A2.575,2.575,0,0,1,61.156,12c1.145,0,1.776.937,1.776,2.638v5.123c0,.24.043.4.082.4s.155-.081.272-.323c1-1.92,2.486-4.6,3.629-6.361A2.657,2.657,0,0,1,69.247,12c1.143,0,1.773.937,1.773,2.638v7c0,.235.042.279.119.279.042,0,.163-.12.239-.238A50.535,50.535,0,0,0,76.7,12.517c.191-.533.312-.835.588-.835s.391.362.52.745c.024.071.048.142.073.211.219.539.552,1.173.9,1.845s.755,1.437,1.11,2.237a26.016,26.016,0,0,1,4.733-3.442A10.212,10.212,0,0,1,88.934,12c.341,0,.515.079.515.235,0,.317-.207.542-.494.854l-.138.151a7.007,7.007,0,0,0-1.461,4.521,5.66,5.66,0,0,0,.928,3.25,3.08,3.08,0,0,0,2.585,1.39c1.628,0,3.275-1.347,3.275-3.92,0-.109,0-.223,0-.344a5.385,5.385,0,0,0-.043-1.057,2.921,2.921,0,0,1-.632.041,4.856,4.856,0,0,1-1.937-.279A2.755,2.755,0,0,1,89.684,14.2a2.021,2.021,0,0,1,.587-1.5,2.239,2.239,0,0,1,1.507-.574h.069a2.965,2.965,0,0,1,1.863.77,5.615,5.615,0,0,1,1.541,2.27,11.966,11.966,0,0,0,1.934-1.2c.29-.205.561-.429.823-.646A4.23,4.23,0,0,1,100.813,12c1.318,0,1.932.838,1.932,2.638v5.123c0,.285.034.4.117.4s.184-.213.262-.369l.016-.033c.128-.247.278-.541.437-.853a56.5,56.5,0,0,1,3.034-5.429A2.661,2.661,0,0,1,108.943,12a1.658,1.658,0,0,1,1.345.613,3.2,3.2,0,0,1,.547,2.024v7c0,.247.12.44.274.44a1.081,1.081,0,0,0,.791-.474c.039-.044.077-.085.114-.124.3-.335.539-.608.73-.827.571-.656.743-.854,1.01-.854a.588.588,0,0,1,.629.561.919.919,0,0,1-.115.4l-.266.459c-1.4,2.421-2.327,4.02-4.04,4.02-1.625,0-2.52-1.037-2.52-2.919v-6.24c0-.537-.089-.642-.242-.642-.111,0-.263.216-.471.565-.864,1.458-2.782,5.193-4.024,7.837a2.177,2.177,0,0,1-1.893,1.4c-.966,0-1.379-.563-1.379-1.881V15.521c0-.532-.173-.8-.515-.8a2.141,2.141,0,0,0-1.108.56,9.329,9.329,0,0,1-2.089,1.362l.015.094a8.551,8.551,0,0,1,.1,1.7,7.332,7.332,0,0,1-1.685,4.886A5.708,5.708,0,0,1,89.8,25.241a5.04,5.04,0,0,1-4.156-2.02,7.5,7.5,0,0,1-1.4-4.54A6.991,6.991,0,0,1,85.465,14.6c-1.655.416-3.827,2.381-4.974,3.516a8.422,8.422,0,0,1,.632,2.922,4.6,4.6,0,0,1-1.055,3.015,3.232,3.232,0,0,1-2.416,1.185,2.183,2.183,0,0,1-2.087-2.362A6.655,6.655,0,0,1,77.455,19a16.575,16.575,0,0,0-1.184-2.239c-1.207,2.063-3.068,5.071-4.339,6.757-.7.907-1.423,1.72-2.529,1.72a1.629,1.629,0,0,1-1.193-.471,2.584,2.584,0,0,1-.576-1.848v-6.8c0-.547-.048-.723-.2-.723-.106,0-.276.2-.522.6-.834,1.448-2.759,5.072-4.059,7.837a2.121,2.121,0,0,1-1.86,1.4c-.963,0-1.374-.563-1.374-1.881V16.2c0-.509-.076-.6-.237-.6s-.342.179-.515.48c-.879,1.541-3.039,5.042-5.089,8a2.165,2.165,0,0,1-1.817,1.158,1.64,1.64,0,0,1-1.2-.471,2.579,2.579,0,0,1-.577-1.848v-6.84c0-.5-.079-.68-.153-.68-.265,0-.577.573-1.093,1.524-.1.186-.209.385-.326.6-1.038,1.866-2.437,4.452-2.964,5.6C45,24.558,44.527,25.241,43.6,25.241a1.323,1.323,0,0,1-1.38-1.441V15.759A10.064,10.064,0,0,1,38.707,17c.043.477.078.914.078,1.438a7.269,7.269,0,0,1-1.731,4.886,5.708,5.708,0,0,1-4.306,1.915,5.047,5.047,0,0,1-4.158-2.02,7.488,7.488,0,0,1-1.407-4.54,9.618,9.618,0,0,1,.394-2.556A26.645,26.645,0,0,0,23.32,20c.159,1.851.24,3.709.24,5.52a25.677,25.677,0,0,1-1.974,9.549C20.209,38.249,18.458,40,16.654,40ZM20.48,23.323c-3,3.89-4.485,7.859-4.421,11.8a3.073,3.073,0,0,0,.5,1.713,1.34,1.34,0,0,0,1.085.6h.03c1.258,0,2.06-1.471,2.511-2.7a16.948,16.948,0,0,0,.894-5.573,43.813,43.813,0,0,0-.595-5.838ZM78.088,20.6a4.719,4.719,0,0,0-.951,2.163c0,.571.329.924.634.924.435,0,.669-.66.669-1.281a5.429,5.429,0,0,0-.352-1.805ZM21.74,1.365c-1.1,0-2.65,1.289-3.858,3.208a15.748,15.748,0,0,0-2.295,8.3,17.635,17.635,0,0,0,.885,5.913,13.734,13.734,0,0,0,2.394,4.172l1.263-1.72c-.078-.515-.161-1.035-.24-1.537V19.7a43.649,43.649,0,0,1-.709-6.216,25.516,25.516,0,0,1,1.458-8.6c.354-.995.666-1.767.894-2.331A5.339,5.339,0,0,0,21.9,1.52C21.9,1.4,21.858,1.365,21.74,1.365ZM4.142,18.839c-.734,0-1.061.273-1.061.884,0,.857,1.127,1.478,2.681,1.478a12.72,12.72,0,0,0,1.775-.081C6.258,19.5,5.274,18.839,4.142,18.839Zm87.869-4.918a.52.52,0,0,0-.55.559c0,.673.729,1.162,1.732,1.162.083,0,.185-.01.285-.021s.195-.02.271-.02C93.321,14.5,92.551,13.922,92.011,13.922Zm-57.054,0a.526.526,0,0,0-.552.559c0,.765.715,1.121,2.25,1.121C36.23,14.5,35.479,13.922,34.957,13.922ZM46.914,1.844c-.219,0-.581.315-.881,1.2a19.218,19.218,0,0,0-.615,5.673v2.922a13.718,13.718,0,0,0,2.206-7.12C47.624,2.194,47.531,1.844,46.914,1.844Z" transform="translate(103.216 0)"/></svg>